<svg xmlns="http://www.w3.org/2000/svg" xmlns:xlink="http://www.w3.org/1999/xlink" width="36.471" height="36.47" viewBox="0 0 36.471 36.47">
  <defs>
    <linearGradient id="linear-gradient" x2="1.276" y2="1.286" gradientUnits="objectBoundingBox">
      <stop offset="0" stop-color="#e98995"/>
      <stop offset="1" stop-color="#b4b5e7"/>
    </linearGradient>
  </defs>
  <g id="Group_2655" data-name="Group 2655" transform="translate(0 0.001)">
    <path id="Intersection_8" data-name="Intersection 8" d="M2.979,33.483a10.381,10.381,0,0,1-2.963-8,12.558,12.558,0,0,1,3.738-8.244L17.24,3.752A12.562,12.562,0,0,1,25.484.014a10.428,10.428,0,0,1,8,2.971c4.262,4.262,3.92,11.549-.768,16.237L19.224,32.716A12.557,12.557,0,0,1,10.4,36.469,10.391,10.391,0,0,1,2.979,33.483ZM4.826,18.31a11.1,11.1,0,0,0-3.29,7.249,8.885,8.885,0,0,0,2.523,6.854c3.669,3.67,9.992,3.328,14.094-.768l6.588-6.6L11.413,11.722ZM25.561,1.533a11.074,11.074,0,0,0-7.249,3.29l-5.828,5.828L25.811,23.978l5.828-5.827c4.1-4.1,4.445-10.425.775-14.087a8.8,8.8,0,0,0-6.329-2.538C25.91,1.526,25.736,1.526,25.561,1.533Z" transform="translate(0 0)" fill="url(#linear-gradient)"/>
  </g>
</svg>
