<svg xmlns="http://www.w3.org/2000/svg" xmlns:xlink="http://www.w3.org/1999/xlink" width="32.005" height="37.364" viewBox="0 0 32.005 37.364">
  <defs>
    <linearGradient id="linear-gradient" x1="-0.129" y1="-0.164" x2="1.511" y2="1.18" gradientUnits="objectBoundingBox">
      <stop offset="0" stop-color="#9cf4ed"/>
      <stop offset="1" stop-color="#8686f7"/>
    </linearGradient>
  </defs>
  <g id="Group_2661" data-name="Group 2661" transform="translate(0.001 0)">
    <path id="Intersection_3" data-name="Intersection 3" d="M24.328,36.632a5.055,5.055,0,0,1,5.034-8.764,3.282,3.282,0,0,0-.562-3.543,2.978,2.978,0,0,0-4.261.016l-8.406,7.484a7.622,7.622,0,0,1-5.423,2.466A7.281,7.281,0,0,1,5.5,31.934c-1.686-1.709-2.435-6.345-2.389-8.492l-.008-.007a10.661,10.661,0,0,1,0-15.047L10.365,1.13a3.868,3.868,0,0,1,5.463,0l.047.047a2.347,2.347,0,1,1-.929,1.273l-.218-.219a2.363,2.363,0,0,0-3.255,0L4.216,9.489a9.012,9.012,0,0,0-2.295,3.886.782.782,0,0,1,.212.149L12.285,24.441a.739.739,0,0,1,.172.352,8.995,8.995,0,0,0,4.6-2.474l7.258-7.259a2.3,2.3,0,0,0,0-3.254l-.219-.219a2.193,2.193,0,0,1-.67.11,2.345,2.345,0,0,1-1.858-3.77,2.345,2.345,0,0,1,3.809,2.731l.047.047a3.868,3.868,0,0,1,0,5.463l-7.258,7.258A10.637,10.637,0,0,1,4.739,24.762c.187,2.185.9,5.073,1.881,6.071a5.754,5.754,0,0,0,4.09,1.889,6.13,6.13,0,0,0,4.347-2.037l8.4-7.485a4.521,4.521,0,0,1,3.216-1.334h.023a4.54,4.54,0,0,1,3.223,1.342,4.883,4.883,0,0,1,.711,5.6v.008H30.61a5.056,5.056,0,0,1-6.282,7.812Zm.171-6.751a3.51,3.51,0,1,0,4.964,4.964l.031-.032A3.51,3.51,0,0,0,24.5,29.881ZM1.57,15.943a9.059,9.059,0,0,0,9.061,9.045h.008L1.6,15.248C1.586,15.475,1.57,15.709,1.57,15.943Zm21.29-7.1a.779.779,0,1,0,.551-.228A.778.778,0,0,0,22.86,8.841ZM16.625,2.6a.778.778,0,0,0,1.1,1.1.778.778,0,0,0-.554-1.327A.756.756,0,0,0,16.625,2.6Z" transform="translate(0 0)" fill="url(#linear-gradient)"/>
  </g>
</svg>
