<svg xmlns="http://www.w3.org/2000/svg" xmlns:xlink="http://www.w3.org/1999/xlink" width="38.267" height="33.471" viewBox="0 0 38.267 33.471"><defs><linearGradient id="a" x1="1.12" y1="1.21" x2="-0.258" y2="-0.354" gradientUnits="objectBoundingBox"><stop offset="0" stop-color="#84f1fd"/><stop offset="1" stop-color="#64acfa"/></linearGradient></defs><path d="M18.394,32.953c-1.2-3.237-4.529-5.685-8.053-8.285C5.509,21.1.51,17.42.032,11.129A10.412,10.412,0,0,1,7.853.318,10,10,0,0,1,19.175,5.325C22.436.238,27.188-.623,30.721.358a10.359,10.359,0,0,1,7.527,10.748c-.359,6.235-5.438,10-10.341,13.642-3.516,2.615-6.834,5.079-8.022,8.2a.8.8,0,0,1-.749.518A.785.785,0,0,1,18.394,32.953ZM8.252,1.857A8.719,8.719,0,0,0,1.626,11c.422,5.565,5.118,9.025,9.663,12.374,3.173,2.336,6.2,4.568,7.861,7.455,1.659-2.8,4.657-5.023,7.806-7.359,4.617-3.428,9.385-6.968,9.7-12.454A8.791,8.791,0,0,0,30.29,1.9c-3.214-.886-7.638.079-10.445,5.445a.812.812,0,0,1-.725.431.79.79,0,0,1-.7-.463c-1.961-4.234-5.151-5.725-8.029-5.725A8.429,8.429,0,0,0,8.252,1.857Z" transform="translate(0 0)" fill="url(#a)"/></svg>