<svg xmlns="http://www.w3.org/2000/svg" xmlns:xlink="http://www.w3.org/1999/xlink" width="37.365" height="37.364" viewBox="0 0 37.365 37.364"><defs><linearGradient id="a" x1="-0.129" y1="-0.164" x2="1.511" y2="1.18" gradientUnits="objectBoundingBox"><stop offset="0" stop-color="#81f3be"/><stop offset="1" stop-color="#97c4e5"/></linearGradient></defs><path d="M.233,37.119a.8.8,0,0,1,.016-1.146l5.207-5.207L4.335,26.483a2.7,2.7,0,0,0-.089-.325,1.745,1.745,0,0,1,.3-1.958L20.714,8.025,18.934,6.247A.81.81,0,0,1,20.08,5.1L32.258,17.3a.81.81,0,0,1-1.146,1.146l-1.77-1.771L13.174,32.845a1.473,1.473,0,0,1-1.08.455,2.845,2.845,0,0,1-.829-.147c-.105-.024-.228-.065-.349-.089L6.577,31.943,1.394,37.119l-.016.016a.78.78,0,0,1-.556.23A.834.834,0,0,1,.233,37.119ZM5.692,25.355c.008.016.066.211.106.357.032.113.073.236.105.373L7,30.229a.335.335,0,0,1,.089.057.7.7,0,0,1,.081.13L11.3,31.48a3.877,3.877,0,0,1,.414.105c.13.041.341.081.374.09L28.171,15.524,21.835,9.187,20.543,10.48l1.95,1.949a.81.81,0,0,1-1.146,1.146L19.4,11.624l-1.7,1.7,1.544,1.543A.81.81,0,0,1,18.1,16.012l-1.544-1.543-1.8,1.812a.827.827,0,0,1,.439.211l2.437,2.437a.81.81,0,0,1-1.146,1.146l-2.437-2.437a.825.825,0,0,1-.212-.438l-2.323,2.323a.8.8,0,0,1,.438.212l1.625,1.625A.81.81,0,0,1,12.427,22.5L10.8,20.878a.827.827,0,0,1-.211-.439l-2.21,2.219,2.762,2.762A.81.81,0,0,1,10,26.565L7.235,23.8ZM28.667,11.933a.8.8,0,0,1,.016-1.145l4.3-4.3-2.1-2.1-4.3,4.3-.016.016a.81.81,0,0,1-1.129-1.162l4.3-4.3-1.86-1.868a.82.82,0,0,1,0-1.13A.816.816,0,0,1,29.016.227L37.14,8.351A.813.813,0,0,1,35.986,9.5l-1.86-1.86-4.3,4.3-.016.016a.8.8,0,0,1-1.146-.016Z" transform="translate(0 0)" fill="url(#a)"/></svg>