<svg xmlns="http://www.w3.org/2000/svg" xmlns:xlink="http://www.w3.org/1999/xlink" width="40.301" height="40.304" viewBox="0 0 40.301 40.304">
  <defs>
    <linearGradient id="linear-gradient" x1="-0.044" x2="1.511" y2="1.18" gradientUnits="objectBoundingBox">
      <stop offset="0" stop-color="#f8c292"/>
      <stop offset="1" stop-color="#da88db"/>
    </linearGradient>
  </defs>
  <path id="Intersection_9" data-name="Intersection 9" d="M13.293,40a4.853,4.853,0,0,1-2.745-2.645,6.248,6.248,0,0,1,.008-4.811,6.326,6.326,0,0,1,4.727-3.92l1.3-4.9-4.9,1.3A6.283,6.283,0,0,1,7.76,29.741a6.521,6.521,0,0,1-2.468.488,5.906,5.906,0,0,1-2.343-.488A4.873,4.873,0,0,1,.3,27C-.72,24.26.934,21.035,4,19.8a6.242,6.242,0,0,1,4.811-.009,4.89,4.89,0,0,1,2.645,2.738,5.572,5.572,0,0,1,.2.755l5.424-1.436L22.7.624a.838.838,0,0,1,1.62.428l-5.373,20.3,20.3-5.374a.842.842,0,0,1,1.025.6.852.852,0,0,1-.6,1.041L18.44,23.234,17,28.659a3.874,3.874,0,0,1,.747.2A4.839,4.839,0,0,1,20.5,31.5,6.423,6.423,0,0,1,14.972,40.3,4.809,4.809,0,0,1,13.293,40Zm-1.175-6.852a4.544,4.544,0,0,0-.025,3.51,3.168,3.168,0,0,0,1.8,1.746c1.889.706,4.155-.52,5.054-2.746a4.546,4.546,0,0,0,.025-3.509A3.138,3.138,0,0,0,16.064,30.2,4.488,4.488,0,0,0,12.118,33.151Zm-7.5-11.8c-2.217.9-3.451,3.165-2.746,5.054a3.221,3.221,0,0,0,1.747,1.8,4.544,4.544,0,0,0,3.51-.025c2.216-.906,3.451-3.173,2.745-5.054a3.191,3.191,0,0,0-1.746-1.8,4.135,4.135,0,0,0-1.672-.341A4.912,4.912,0,0,0,4.62,21.354Z" transform="translate(-0.001 0)" fill="url(#linear-gradient)"/>
</svg>
