<svg xmlns="http://www.w3.org/2000/svg" xmlns:xlink="http://www.w3.org/1999/xlink" width="38.517" height="38.522" viewBox="0 0 38.517 38.522">
  <defs>
    <linearGradient id="linear-gradient" x1="-0.097" y1="-0.098" x2="1" y2="1" gradientUnits="objectBoundingBox">
      <stop offset="0" stop-color="#b5b4e9"/>
      <stop offset="1" stop-color="#f581f5"/>
    </linearGradient>
  </defs>
  <path id="Intersection_6" data-name="Intersection 6" d="M10.076,36.2a12.272,12.272,0,0,1-6.929,2.274,8.588,8.588,0,0,1-1.4-.105,1.68,1.68,0,0,1-1.4-1.414,1.662,1.662,0,0,1,.918-1.762,7.448,7.448,0,0,0,3.144-3.656,19.248,19.248,0,1,1,5.67,4.663Zm.415-2.007a17.344,17.344,0,1,0-4.208-3.477.975.975,0,0,1,.163,1.04,10.54,10.54,0,0,1-3.591,4.753c.1.008.2.008.293.008a10.36,10.36,0,0,0,6.125-2.145.975.975,0,0,1,1.219-.179Zm7.79-6.06V26.215H15.714a.975.975,0,0,1,0-1.95h4.907a2.023,2.023,0,1,0,0-4.045h-2.73a3.972,3.972,0,0,1,0-7.944h.391V10.391a.975.975,0,1,1,1.949,0v1.885h2.478a.975.975,0,0,1,0,1.949H17.891a2.023,2.023,0,0,0,0,4.045h2.73a3.973,3.973,0,0,1,.049,7.945h-.438v1.917a.975.975,0,1,1-1.949,0Z" transform="translate(0 0)" fill="url(#linear-gradient)"/>
</svg>
