<svg xmlns="http://www.w3.org/2000/svg" xmlns:xlink="http://www.w3.org/1999/xlink" width="40.788" height="50.466" viewBox="0 0 40.788 50.466"><defs><linearGradient id="a" x2="1.319" y2="1.176" gradientUnits="objectBoundingBox"><stop offset="0" stop-color="#e4ffb1"/><stop offset="1" stop-color="#ff7869"/></linearGradient></defs><g transform="translate(-542.432 -565.245)"><path d="M2515.861,6558.448a5.04,5.04,0,0,1-1.879-.5,4.877,4.877,0,0,1-.613-.357l-.073-.061-.419-.513c-2.439-2.6-.849-4.6.557-6.354.336-.42.681-.856.969-1.289,1.676-2.786,1.075-5.155.442-7.662-.518-2.042-1.052-4.151-.283-6.5a3.966,3.966,0,0,1,2.22-2.583c2.159-.915,5.115.114,7.215,1.138a20.34,20.34,0,0,1,3.134,1.874c3.48,2.878,3.3,8.029-.539,15.312-1.651,3.055-6.2,7.5-10.34,7.5Q2516.056,6558.461,2515.861,6558.448Zm1.213-25.128a3.262,3.262,0,0,0-1.8,2.128c-.7,2.141-.218,4.053.3,6.079.646,2.547,1.314,5.18-.536,8.247-.31.468-.661.914-1,1.337-1.462,1.833-2.608,3.268-.592,5.415l.392.48a4.179,4.179,0,0,0,.48.273c4.1,2,9.833-3.356,11.623-6.673,3.651-6.923,3.9-11.763.735-14.376a19.4,19.4,0,0,0-3-1.788,13.375,13.375,0,0,0-4.556-1.4q-.219-.015-.434-.016A4.1,4.1,0,0,0,2517.074,6533.319Zm13.969,5.088a1.2,1.2,0,0,1-.447-.119,1.084,1.084,0,0,1-.236-.155,1.226,1.226,0,0,1-.4-1.054,1.934,1.934,0,0,1,.48-1.107,1.661,1.661,0,0,1,1.9-.561,1.062,1.062,0,0,1,.229.153,1.224,1.224,0,0,1,.4,1.053,1.923,1.923,0,0,1-.481,1.108,1.831,1.831,0,0,1-1.348.684C2531.1,6538.411,2531.074,6538.41,2531.043,6538.408Zm-.038-1.948a1.19,1.19,0,0,0-.3.679.5.5,0,0,0,.143.43.329.329,0,0,0,.073.048.939.939,0,0,0,1-.375,1.2,1.2,0,0,0,.3-.679.5.5,0,0,0-.143-.43.3.3,0,0,0-.076-.051.5.5,0,0,0-.168-.043h-.041A1.128,1.128,0,0,0,2531.005,6536.459Zm-33.419,1.651-.729-.031a4.868,4.868,0,0,1-.659-.265c-4.589-2.237-3.907-10.459-2.255-14.238,3.377-7.512,7.321-10.83,11.722-9.859a20.132,20.132,0,0,1,3.419,1.319c2.1,1.023,4.729,2.718,5.338,4.985a3.963,3.963,0,0,1-.668,3.339c-1.375,2.052-3.368,2.928-5.293,3.777-2.367,1.045-4.6,2.029-5.773,5.082-.157.478-.284,1.017-.411,1.538-.492,2.064-1.043,4.381-4.088,4.381C2498,6538.139,2497.8,6538.13,2497.587,6538.111Zm-2.96-14.23c-1.508,3.45-2.2,11.262,1.9,13.265a3.816,3.816,0,0,0,.513.208l.592.013c2.96.267,3.384-1.517,3.922-3.777l.008-.024c.124-.531.257-1.08.427-1.6,1.289-3.361,3.772-4.454,6.177-5.512,1.912-.842,3.719-1.64,4.975-3.51a3.262,3.262,0,0,0,.565-2.733c-.564-2.1-3.34-3.724-4.944-4.507a19.368,19.368,0,0,0-3.269-1.261,6,6,0,0,0-.892-.13c-.134-.009-.269-.014-.4-.014C2500.7,6514.3,2497.487,6517.515,2494.626,6523.88Zm34.625,11.87a1.427,1.427,0,0,1-.519-.135,1.4,1.4,0,0,1-.279-.183,1.415,1.415,0,0,1-.477-.986,2.283,2.283,0,0,1,.589-1.622,2.025,2.025,0,0,1,2.294-.679,1.207,1.207,0,0,1,.264.171,1.469,1.469,0,0,1,.476,1.254,2.389,2.389,0,0,1-.585,1.355,2.265,2.265,0,0,1-1.654.828C2529.324,6535.754,2529.288,6535.753,2529.251,6535.75Zm-.12-2.439a1.561,1.561,0,0,0-.411,1.08.682.682,0,0,0,.218.475c.351.3,1.063.094,1.508-.427a1.638,1.638,0,0,0,.41-.92.74.74,0,0,0-.218-.635.54.54,0,0,0-.12-.079.683.683,0,0,0-.252-.066l-.057,0A1.524,1.524,0,0,0,2529.131,6533.311Zm-2.474.241a1.317,1.317,0,0,1-.485-.129l-.066-.035a1.456,1.456,0,0,1-.707-1.139,2.422,2.422,0,0,1,.317-1.445,1.9,1.9,0,0,1,2.346-1.04l.064.034a1.454,1.454,0,0,1,.707,1.143,2.412,2.412,0,0,1-.317,1.444,2.143,2.143,0,0,1-1.76,1.171C2526.723,6533.555,2526.69,6533.554,2526.657,6533.552Zm-.29-2.382a1.653,1.653,0,0,0-.226.989.732.732,0,0,0,.328.579l.033.017c.411.2,1.022-.132,1.365-.739a1.634,1.634,0,0,0,.224-.987.743.743,0,0,0-.325-.579.689.689,0,0,0-.244-.062l-.052,0A1.4,1.4,0,0,0,2526.367,6531.169Zm-2.883.869a1.269,1.269,0,0,1-.226-.035,1.339,1.339,0,0,1-.313-.11,2.29,2.29,0,0,1-.945-2.631,2.17,2.17,0,0,1,2.337-1.9,1.38,1.38,0,0,1,.312.11,2.576,2.576,0,0,1-1.064,4.573C2523.551,6532.042,2523.517,6532.041,2523.483,6532.038Zm-.757-2.607a1.61,1.61,0,0,0,.551,1.795.767.767,0,0,0,.148.051c.59.137,1.238-.468,1.442-1.349a1.589,1.589,0,0,0-.546-1.79,1.042,1.042,0,0,0-.153-.056.745.745,0,0,0-.117-.018l-.052,0C2523.46,6528.062,2522.911,6528.633,2522.727,6529.431Zm-4.431,2.194c-.035,0-.069,0-.1-.01a2.37,2.37,0,0,1-.788-.229,4.068,4.068,0,0,1-1.82-4.177c.256-2.235,1.841-3.9,3.533-3.708a2.391,2.391,0,0,1,.786.229,4.073,4.073,0,0,1,1.82,4.179,4.834,4.834,0,0,1-1.185,2.726,2.828,2.828,0,0,1-2.073,1Q2518.38,6531.63,2518.3,6531.625Zm-1.971-4.331a3.327,3.327,0,0,0,1.406,3.42,1.625,1.625,0,0,0,.544.16,2.04,2.04,0,0,0,1.714-.745,4.06,4.06,0,0,0,.991-2.3,3.331,3.331,0,0,0-1.4-3.424,1.681,1.681,0,0,0-.546-.16l-.073-.006c-.039,0-.077,0-.115,0C2517.63,6524.23,2516.522,6525.554,2516.324,6527.294Zm-.275-8.265a2.791,2.791,0,0,1-1.025-.267,2.426,2.426,0,0,1-.666-.476,2.761,2.761,0,0,1-.671-2.455,4.814,4.814,0,0,1,1.419-2.609,4.064,4.064,0,0,1,4.411-1.139,2.417,2.417,0,0,1,.668.478c1.193,1.216.857,3.486-.749,5.064a4.668,4.668,0,0,1-3.162,1.412C2516.2,6519.037,2516.124,6519.034,2516.049,6519.029Zm-.419-5.278a4.079,4.079,0,0,0-1.208,2.2,2.045,2.045,0,0,0,.467,1.81,1.717,1.717,0,0,0,.461.33,3.332,3.332,0,0,0,3.562-1c1.312-1.289,1.645-3.087.74-4.011a1.661,1.661,0,0,0-.462-.332,2.048,2.048,0,0,0-.765-.2q-.086-.006-.173-.006A3.9,3.9,0,0,0,2515.63,6513.75Zm-3.831,1.111a1.586,1.586,0,0,1-.585-.153,1.488,1.488,0,0,1-.28-.178,2.17,2.17,0,0,1,.061-3.013,2.293,2.293,0,0,1,2.656-.874,1.389,1.389,0,0,1,.28.178,1.659,1.659,0,0,1,.577,1.376,2.774,2.774,0,0,1-.64,1.637,2.6,2.6,0,0,1-1.944,1.032Q2511.861,6514.866,2511.8,6514.862Zm-.223-2.876c-.567.7-.645,1.584-.175,1.966.453.375,1.342.089,1.884-.585.567-.7.646-1.584.175-1.967a.679.679,0,0,0-.137-.087.847.847,0,0,0-.315-.083l-.07,0A1.886,1.886,0,0,0,2511.577,6511.985Zm-3.073,1.251a1.289,1.289,0,0,1-.414-.1l-.069-.031h0a1.9,1.9,0,0,1-.623-2.488,2.437,2.437,0,0,1,.943-1.139,1.461,1.461,0,0,1,1.332-.146l.066.032a1.9,1.9,0,0,1,.626,2.487,2.419,2.419,0,0,1-.941,1.139,1.584,1.584,0,0,1-.823.246C2508.568,6513.24,2508.536,6513.239,2508.5,6513.236Zm.224-3.116a1.652,1.652,0,0,0-.643.787c-.269.643-.148,1.33.26,1.531l.033.013a.733.733,0,0,0,.656-.1,1.641,1.641,0,0,0,.641-.786c.262-.63.144-1.332-.259-1.528a.693.693,0,0,0-.214-.053h-.043A.814.814,0,0,0,2508.729,6510.121Zm-6.857,2.606a1.036,1.036,0,0,1-.144-.02,1.081,1.081,0,0,1-.267-.09,1.63,1.63,0,0,1-.719-1.835,1.938,1.938,0,0,1,.579-1.058,1.233,1.233,0,0,1,1.076-.335,1.156,1.156,0,0,1,.26.091,1.653,1.653,0,0,1,.725,1.836,1.93,1.93,0,0,1-.579,1.06,1.264,1.264,0,0,1-.854.354Zm-.051-2.453a1.185,1.185,0,0,0-.348.656c-.1.485.1.981.4,1.047a.5.5,0,0,0,.428-.153,1.19,1.19,0,0,0,.348-.656.944.944,0,0,0-.315-1.017.428.428,0,0,0-.091-.03l-.048-.006h-.024A.539.539,0,0,0,2501.82,6510.274Zm3.384,2.295a1.214,1.214,0,0,1-.171-.023,1.256,1.256,0,0,1-.315-.107,1.993,1.993,0,0,1-.86-2.22,2.358,2.358,0,0,1,.706-1.294,1.467,1.467,0,0,1,1.281-.4,1.294,1.294,0,0,1,.3.1,2.03,2.03,0,0,1,.879,2.229,2.284,2.284,0,0,1-.918,1.46,1.45,1.45,0,0,1-.806.257Zm-.143-3.094a1.661,1.661,0,0,0-.475.89,1.3,1.3,0,0,0,.462,1.4.526.526,0,0,0,.132.046.672.672,0,0,0,.506-.121,1.544,1.544,0,0,0,.6-.985,1.289,1.289,0,0,0-.458-1.408.637.637,0,0,0-.135-.046.54.54,0,0,0-.066-.008h-.041A.806.806,0,0,0,2505.061,6509.475Z" transform="translate(-1950 -5943)" stroke="#e8e7a3" stroke-width="0.5" fill="url(#a)"/></g></svg>