<svg xmlns="http://www.w3.org/2000/svg" xmlns:xlink="http://www.w3.org/1999/xlink" width="38.29" height="39.997" viewBox="0 0 38.29 39.997"><defs><linearGradient id="a" x1="-0.129" y1="-0.164" x2="1.511" y2="1.18" gradientUnits="objectBoundingBox"><stop offset="0" stop-color="#a9f7ac"/><stop offset="1" stop-color="#f2c152"/></linearGradient></defs><path d="M20.651,39.7a.831.831,0,0,1,.1-1.167,2.735,2.735,0,0,0,1.185-2.794,6.882,6.882,0,0,0-.23-.8,4.109,4.109,0,0,1-.28-2.477,3.8,3.8,0,0,1,3.541-2.358,3.319,3.319,0,0,0,1.823-.6,1.082,1.082,0,0,1-.042-.169.267.267,0,0,1-.051-.049A5.676,5.676,0,0,1,25.278,25.1a6.979,6.979,0,0,1,2.449-4.76c2.8-2.417,6.9-2.362,9.142.129a5.561,5.561,0,0,1,1.4,4.181,6.935,6.935,0,0,1-2.44,4.758,7.246,7.246,0,0,1-3.374,1.652,6.4,6.4,0,0,1-4.3-.631c-.793,1.175-3.009,1.319-3.1,1.328-.7.043-1.812.394-2.048,1.182a2.885,2.885,0,0,0,.262,1.475,7,7,0,0,1,.3,1.057,4.338,4.338,0,0,1-1.712,4.3.165.165,0,0,1-.036.033.812.812,0,0,1-.371.178A.824.824,0,0,1,21.29,40,.838.838,0,0,1,20.651,39.7ZM31.423,20.309a5.683,5.683,0,0,0-2.617,1.285,5.271,5.271,0,0,0-1.871,3.61,4.014,4.014,0,0,0,1,2.977c1.646,1.831,4.713,1.817,6.836-.013a5.267,5.267,0,0,0,1.871-3.61,4.021,4.021,0,0,0-1-2.977,4.284,4.284,0,0,0-3.228-1.368A5.193,5.193,0,0,0,31.423,20.309ZM.2,35.428a.819.819,0,0,1,.086-1.164c2.012-1.8,2.591-3.2,2.238-5.36a9.805,9.805,0,0,0-.422-1.479,6.5,6.5,0,0,1-.481-3.9c.693-2.336,3.3-3.517,5.566-3.646,1.234-.071,3.212-.617,3.632-1.322a.516.516,0,0,0-.007-.513c-.064-.072-.127-.128-.191-.2C6.971,13.667,7.7,6.99,12.245,2.959A11.477,11.477,0,0,1,20.5.022a9.484,9.484,0,0,1,6.626,3.191c3.653,4.172,2.927,10.85-1.621,14.881a11.8,11.8,0,0,1-5.538,2.754,10.287,10.287,0,0,1-2.722.184,9.553,9.553,0,0,1-4.965-1.724.514.514,0,0,1-.036.074c-1.11,1.885-4.934,2.131-4.966,2.138-1.642.1-3.611.9-4.076,2.463a5.31,5.31,0,0,0,.455,2.9,11.445,11.445,0,0,1,.491,1.744c.561,3.358-1,5.279-2.765,6.863-.006.01-.014.012-.022.022a.788.788,0,0,1-.379.187A.825.825,0,0,1,.2,35.428Zm17.886-33.6A10.2,10.2,0,0,0,13.345,4.2c-3.872,3.426-4.53,9.062-1.472,12.559a7.88,7.88,0,0,0,5.486,2.627,9.815,9.815,0,0,0,7.05-2.526c3.872-3.426,4.531-9.061,1.474-12.55A7.859,7.859,0,0,0,20.394,1.67q-.268-.015-.536-.015A9.285,9.285,0,0,0,18.088,1.823Z" transform="translate(0 0)" fill="url(#a)"/></svg>