<svg xmlns="http://www.w3.org/2000/svg" xmlns:xlink="http://www.w3.org/1999/xlink" width="39.883" height="41.143" viewBox="0 0 39.883 41.143">
  <defs>
    <linearGradient id="linear-gradient" x1="-0.129" y1="-0.164" x2="1.511" y2="1.18" gradientUnits="objectBoundingBox">
      <stop offset="0" stop-color="#ccc"/>
      <stop offset="1" stop-color="#ef7777"/>
    </linearGradient>
  </defs>
  <path id="Intersection_11" data-name="Intersection 11" d="M36.152,40.829a2.189,2.189,0,0,0-3.6,0,.73.73,0,0,1-1.2,0,2.188,2.188,0,0,0-3.6,0,.731.731,0,0,1-1.2,0,2.188,2.188,0,0,0-3.6,0,.73.73,0,0,1-1.2,0,2.189,2.189,0,0,0-3.6,0,.73.73,0,0,1-1.2,0,2.188,2.188,0,0,0-3.6,0,.731.731,0,0,1-1.2,0,2.188,2.188,0,0,0-3.6,0,.73.73,0,0,1-1.2,0,2.188,2.188,0,0,0-3.6,0,.731.731,0,0,1-1.2,0,2.191,2.191,0,0,0-1.8-.946.73.73,0,0,1,0-1.46,3.649,3.649,0,0,1,2.4.9,3.651,3.651,0,0,1,1.49-.786V15.321a15.321,15.321,0,1,1,30.641,0V38.54a3.656,3.656,0,0,1,1.489.786,3.649,3.649,0,0,1,2.4-.9.73.73,0,0,1,0,1.46,2.192,2.192,0,0,0-1.8.946.73.73,0,0,1-1.2,0ZM31.37,28.7V38.913a3.665,3.665,0,0,1,.578.412,3.657,3.657,0,0,1,1.854-.86V15.321a13.861,13.861,0,1,0-27.723,0V38.465a3.657,3.657,0,0,1,1.855.86,3.7,3.7,0,0,1,.577-.412V15.321a11.326,11.326,0,0,1,2.325-6.9A.73.73,0,0,1,12,9.3,9.872,9.872,0,0,0,9.97,15.321V38.442c.121-.012.242-.019.365-.019a3.651,3.651,0,0,1,2.4.9,3.645,3.645,0,0,1,4.8,0,3.646,3.646,0,0,1,4.8,0,3.646,3.646,0,0,1,4.8,0,3.649,3.649,0,0,1,2.4-.9c.122,0,.244.007.365.019V28.7a.729.729,0,0,1,1.459,0Zm-5.837,6.08a.729.729,0,1,1,.73.729A.73.73,0,0,1,25.534,34.776Zm-12.645,0a.729.729,0,1,1,.73.729A.73.73,0,0,1,12.889,34.776Zm9.727-2.919a.729.729,0,1,1,.73.729A.73.73,0,0,1,22.616,31.857Zm7.3-6.08V15.321a9.982,9.982,0,0,0-9.97-9.971,9.872,9.872,0,0,0-6.019,2.028.73.73,0,1,1-.883-1.162,11.32,11.32,0,0,1,6.9-2.325A11.443,11.443,0,0,1,31.37,15.321V25.777a.729.729,0,1,1-1.459,0ZM15.565,19.941a.729.729,0,1,1,0-1.459h8.754a.729.729,0,1,1,0,1.459Zm0-3.892a.729.729,0,1,1,0-1.459h8.754a.729.729,0,1,1,0,1.459Z" transform="translate(0)" fill="url(#linear-gradient)"/>
</svg>
